<?xml version="1.0" encoding="UTF-8"?> <!-- Generator: Adobe Illustrator 16.0.0, SVG Export Plug-In . SVG Version: 6.00 Build 0) --> <svg xmlns="http://www.w3.org/2000/svg" xmlns:xlink="http://www.w3.org/1999/xlink" version="1.1" id="Capa_1" x="0px" y="0px" width="566.93px" height="425.2px" viewBox="0 0 566.93 425.2" xml:space="preserve"> <g> <g> <polygon fill="#354A8A" points="23.738,85.537 57.753,85.537 57.753,198.803 114.265,198.803 114.265,227.453 23.738,227.453 "></polygon> <path fill="#354A8A" d="M182.63,185.716v-10.034h-3.837c-22.635,0-29.9,2.901-29.9,15.442c0,9.634,3.629,13.691,14.145,13.691 C174.95,204.815,182.63,200.758,182.63,185.716 M119.797,194.399c0-30.678,17.784-37.565,58.792-37.565h4.041 c-0.612-9.063-3.837-16.511-15.153-16.511c-12.932,0-22.427,2.7-29.094,5.791l-12.326-23.545 c10.101-5.009,24.243-8.68,44.855-8.68c31.521,0,41.214,13.822,41.214,40.829v38.902c0,6.763,2.853,8.491,10.133,8.491v25.27 c-3.238,0.387-8.524,0.387-11.342,0.387c-14.546,0-20.009-1.35-23.438-9.063c-6.062,6.935-15.152,10.029-31.513,10.029 C126.057,228.735,119.797,214.071,119.797,194.399"></path> <path fill="#354A8A" d="M420.664,173.364c0-19.092-2.025-30.088-19.599-30.088c-17.582,0-19.599,10.996-19.599,30.088 c0,18.907,2.017,30.3,19.599,30.3C418.639,203.664,420.664,192.271,420.664,173.364 M350.552,172.41 c0-34.151,9.899-56.33,50.514-56.33c40.808,0,50.291,22.565,50.291,56.33c0,35.105-9.483,56.708-50.291,56.708 C360.856,229.118,350.552,206.939,350.552,172.41"></path> <polygon fill="#354A8A" points="457.622,208.088 503.29,143.47 460.453,143.47 460.453,118.007 541.669,118.007 541.669,137.687 495.608,203.664 543.494,203.664 543.494,227.377 457.622,227.377 "></polygon> <path fill="#354A8A" d="M312.742,187.335c0.107,0.104,0.162,0.248,0.162,0.407c0,0.388-0.309,0.698-0.683,0.698l-0.246-0.025 c-0.309,0.025-0.635,0.034-0.948,0.034c-5.953,0-11.134-3.314-13.804-8.2l-0.134-0.177c-4.18-6.422-28.44-94.535-28.44-94.535 h-33.737l44.532,142.85h37.661l44.736-142.85h-33.737l-20.547,70.455l-0.507,1.771 C303.659,168.979,305.584,180.16,312.742,187.335"></path> </g> <g> <path fill="#4F8DC0" d="M74.895,285.483c0-20.408,4.136-34.074,24.904-34.074c7.103,0,12.497,1.708,16.183,4.226l-4.585,7.192 c-2.518-1.528-6.293-2.967-11.868-2.967c-12.497,0-15.823,8.092-15.823,25.803c0,17.621,3.147,25.982,15.913,25.982 c5.844,0,9.17-1.259,12.856-3.596l4.315,6.742c-4.675,2.967-9.26,4.675-17.621,4.675 C79.479,319.467,74.895,306.251,74.895,285.483z"></path> <path fill="#4F8DC0" d="M127.76,293.665c0-14.745,3.057-25.713,19.959-25.713c16.992,0,19.959,11.147,19.959,25.713 c0,15.014-2.967,25.802-19.959,25.802C130.997,319.467,127.76,308.589,127.76,293.665z M159.227,293.935 c0-10.339-1.079-18.071-11.508-18.071c-10.339,0-11.508,7.732-11.508,18.071s1.169,18.16,11.508,18.16 C158.148,312.095,159.227,304.273,159.227,293.935z"></path> <path fill="#4F8DC0" d="M183.053,269.301l6.743-0.54l0.719,4.945c1.888-3.417,5.484-5.754,14.655-5.754 c8.631,0,10.789,2.517,12.047,5.934c2.067-3.597,6.203-5.934,15.463-5.934c12.946,0,13.935,7.462,13.935,18.34v32.456h-8.361 v-30.567c0-8.002-0.36-12.228-8.541-12.228c-9.17,0-10.699,4.945-10.699,16.543v26.252h-8.361v-30.567 c0-8.002-0.359-12.228-8.451-12.228c-9.26,0-10.878,5.035-10.878,16.543v26.252h-8.271V269.301z"></path> <path fill="#4F8DC0" d="M260.823,293.665c0-15.464,3.686-25.713,19.6-25.713c17.171,0,17.262,10.968,17.171,29.578h-28.77 c0.36,9.44,2.518,14.564,11.868,14.564c6.473,0,9.709-1.528,12.677-2.877l3.236,6.474c-3.866,2.067-8.631,3.686-16.363,3.686 C263.79,319.377,260.823,309.398,260.823,293.665z M268.915,290.068h20.858c-0.18-8.99-0.27-14.654-9.53-14.654 C271.342,275.414,269.274,280.898,268.915,290.068z"></path> <path fill="#4F8DC0" d="M312.879,269.301l6.653-0.54l0.809,5.664c1.888-3.416,5.664-6.023,13.846-6.023v7.911 c-12.137,0.271-12.856,8.541-12.856,17.622v24.813h-8.451V269.301z"></path> <path fill="#4F8DC0" d="M344.076,293.665c0-15.733,3.327-25.713,19.779-25.713c5.125,0,8.99,0.898,12.227,2.517l-3.596,7.283 c-2.518-1.259-5.125-1.889-8.271-1.889c-9.35,0-11.598,6.203-11.598,17.981c0,11.867,2.068,18.25,11.688,18.25 c3.866,0,6.743-1.168,9.26-2.337l3.237,6.473c-4.315,2.158-7.912,3.236-13.396,3.236 C347.493,319.467,344.076,309.488,344.076,293.665z"></path> <path fill="#4F8DC0" d="M391.188,252.578h8.541v10.159h-8.541V252.578z M391.188,268.851h8.451v49.897h-8.451V268.851z"></path> <path fill="#4F8DC0" d="M415.193,303.734c0-14.475,8.541-18.251,25.623-18.251h2.068c-0.18-6.563-1.619-9.89-8.811-9.89 c-5.214,0-9.44,1.259-12.317,2.697l-3.506-6.923c3.866-1.978,9.53-3.506,16.632-3.506c13.306,0,16.273,5.483,16.273,17.621v21.038 c0,3.865,0.27,4.854,3.866,4.854v7.372c-0.719,0.09-1.528,0.09-2.337,0.09c-5.394,0-7.642-1.079-8.541-4.765 c-2.967,3.956-7.552,5.214-14.115,5.214C418.879,319.287,415.193,313.443,415.193,303.734z M442.884,299.419v-7.013h-1.978 c-12.407,0-17.711,1.438-17.711,10.519c0,7.192,3.057,9.351,8.541,9.351C437.759,312.275,442.884,309.668,442.884,299.419z"></path> <path fill="#4F8DC0" d="M481.994,318.838c-8.721,0-11.418-2.967-11.418-11.777v-57.449h8.451v56.46 c0,4.046,0.27,5.305,5.934,5.305v7.372C484.511,318.838,483.702,318.838,481.994,318.838z"></path> </g> </g> </svg> 